<?xml version="1.0" encoding="UTF-8"?>
<svg id="Ebene_2" data-name="Ebene 2" xmlns="http://www.w3.org/2000/svg" viewBox="0 0 284.31 284.31">
  <defs>
    <style>
      .cls-1 {
        fill: #fff;
      }

      .cls-2 {
        fill: none;
      }

      .cls-2, .cls-3 {
        stroke: #fff;
        stroke-miterlimit: 10;
        stroke-width: 10px;
      }

      .cls-3 {
        fill: #597bbc;
      }
    </style>
  </defs>
  <g id="Ebene_18" data-name="Ebene 18">
    <g>
      <g>
        <circle class="cls-3" cx="142.15" cy="142.15" r="137.15"/>
        <circle class="cls-2" cx="142.15" cy="142.15" r="64.49"/>
        <g>
          <path class="cls-1" d="m82.5,96.84l-9.91,22.07c-2.38,5.31-5.69,7.3-11.12,4.87l-31.99-14.36c-5.61-2.52-6.43-6.36-4.02-11.73l8.03-17.88,10.8,4.85-6.22,14.01,25.5,11.44,2.68-5.96-13.69-6.15,5.46-12.16,24.49,10.99Z"/>
          <path class="cls-1" d="m91.5,54.21c3.95,4.71,2.83,8.51-1.68,12.29l-1.29,1.08,11.97,14.28-10.21,8.56-11.97-14.28-1.49,1.25c-4.51,3.78-8.35,4.13-12.3-.58l-15.87-18.94,10.21-8.56,13.63,16.26,6.54-5.48-13.63-16.26,10.21-8.56,15.87,18.94Z"/>
          <path class="cls-1" d="m160.59,66.54l-13.24,1.54-4.62-39.58-7.07.82,4.62,39.58-13.24,1.54-4.62-39.58-7.07.82,4.62,39.58-13.24,1.54-5.99-51.34,44.66-5.21c5.85-.68,9.46,1.24,10.17,7.35l5,42.92Z"/>
          <path class="cls-1" d="m193.6,77.48c-2.75,5.28-6.63,5.73-11.8,3.04l-19.33-10.07,5.47-10.5,15.55,8.1,3.83-7.34-7.57-3.95c-6.48-3.38-6.33-7.31-4.24-11.33l6.93-13.31c2.84-5.45,6.73-6.05,11.95-3.33l18.19,9.48-5.47,10.5-14.4-7.5-3.65,7,7.46,3.89c5.51,2.87,6.89,6.51,4.02,12.02l-6.93,13.31Z"/>
          <path class="cls-1" d="m212.74,116.58l-7.36-11.11,15.53-10.29-4.18-6.31-15.54,10.29-7.36-11.11,43.1-28.54,7.36,11.11-17.75,11.75.21.32,21.71-5.76,7.32,11.06-23.61,5.47.52.67c2.11,3.18,1.61,8.17-2.28,10.74l-17.69,11.72Z"/>
          <path class="cls-1" d="m215,134.18l-2.64-13.06,50.66-10.25,2.64,13.06-50.66,10.25Z"/>
          <path class="cls-1" d="m196.89,192.79l15.42-25.75,44.34,26.55-15.42,25.75-10.16-6.08,8.57-14.32-6.77-4.05-8.57,14.32-10.1-6.05,8.57-14.32-7.16-4.29-8.57,14.32-10.16-6.08Z"/>
          <path class="cls-1" d="m170.99,219.62c-3.11-5.08-1.5-8.64,3.47-11.68l18.59-11.38,6.18,10.1-14.95,9.15,4.32,7.06,7.28-4.46c6.24-3.82,9.53-1.66,11.89,2.2l7.83,12.8c3.21,5.24,1.72,8.88-3.3,11.96l-17.49,10.7-6.18-10.1,13.85-8.48-4.12-6.73-7.17,4.39c-5.3,3.24-9.13,2.55-12.37-2.74l-7.83-12.8Z"/>
          <path class="cls-1" d="m137.6,256.26l10.99-1.28-4.6-39.58,13.24-1.54,4.6,39.58,10.99-1.28,1.37,11.76-35.21,4.09-1.37-11.76Z"/>
          <path class="cls-1" d="m122.65,212.8l13.12,2.34-2.08,11.65-13.12-2.34,2.08-11.65Z"/>
          <path class="cls-1" d="m83.19,188.13l25.23,20.75-13.4,16.29c-3.9,4.75-7.88,4.49-12.43.75l-7.89-6.49-6.49,7.89,13.69,11.26-7.56,9.19-16.99-13.97c-4.5-3.7-5.56-7.5-1.78-12.1l11.05-13.44c3.9-4.75,7.8-4.39,12.35-.65l7.89,6.49,3.74-4.55-14.94-12.29,7.52-9.14Z"/>
          <path class="cls-1" d="m68.5,155.2l12.61,30.14-19.45,8.14c-5.67,2.37-9.07.29-11.34-5.14l-3.95-9.43-9.43,3.95,6.84,16.35-10.98,4.6-8.49-20.29c-2.25-5.37-1.41-9.23,4.08-11.53l16.05-6.72c5.67-2.37,8.95-.24,11.22,5.19l3.95,9.43,5.43-2.27-7.47-17.84,10.92-4.57Z"/>
        </g>
      </g>
      <g>
        <path class="cls-1" d="m139.96,105.13c0,.75-.52,1.48-1.24,1.72-.05.03-.11.04-.17.03-.07-.03-.11-.1-.14-.17-.51-1-1.39-1.8-2.42-2.23-.84-.34-1.75-.44-2.64-.37-.83.07-1.72.52-2.5.5.09-.21.25-.4.42-.56.69-.65,1.73-.71,2.68-.72,1.16-.02,2.31-.04,3.48-.06.43,0,.88,0,1.3.13.71.26,1.22.98,1.22,1.74Z"/>
        <path class="cls-1" d="m116.42,110.78c-.07.19-.15.37-.3.5-.14.12-.39.18-.53.04-.04-.82.53-1.52.89-2.25.34-.69.24-2.79,1-3,.35,1.47-.53,3.36-1.06,4.7Z"/>
        <path class="cls-1" d="m118.77,120.63c-.09.68-.46,1.46-1.14,1.54-.59.06-1.08-.42-1.46-.86-.49-.57-1.92-2.62-.65-3.11.87-.35,2.37,1.44,3.01,1.89.09.06.19.13.23.23.04.1.04.21.02.33Z"/>
        <path class="cls-1" d="m175.65,129.55c-.07-.28-.06-.57.03-.84,1.87-5.2-1.58-11.86-2.56-13.58-.15-.25-.25-.54-.27-.85-.22-3.63-2.57-5.76-3.44-6.41-.2-.15-.37-.33-.48-.55-1.43-2.83-5.33-3.95-5.69-3.87l-.66-1c-2.51-3.8-6.12-5.41-7.6-5.94-.44-.15-.83-.43-1.12-.78-5.02-6.12-9.53-2.29-10.65-1.16-.18.18-.44.27-.69.24-3.69-.38-6.79-.19-9.37.33.78.46,1.75.79,2.35,1.1.42.22.92.59.83,1.06-.09.43-.68.7-.62,1.14.03.3.35.48.62.59,2.12.94,4.4,1.53,6.7,1.76,1.09.1,2.21.14,3.25.49,1.03.36,2,1.15,2.24,2.22.16.69-.12,1.48-.62,1.95-.33.3-.32.83.03,1.1,1.53,1.25,2.53,3.17,2.61,5.15.05,1.47-.27,3.12-.18,4.56.12,1.49,2.08,1.97,2.9.72.66-.99,1.27-2.01,2.41-2.4.37-.13.74-.16,1.12-.08.06.01.13.02.19.05.08.03.15.06.23.1.15.08.27.17.38.28l.08.08s.03.03.04.05c.04.05.07.09.09.13t.02.01s.01,0,.01.01c.02.05.04.09.07.13.03.08.06.15.09.22.02.07.04.15.06.23.06.25.07.53.03.82-.01.08-.02.17-.03.26,0,.02-.01.05-.02.07,0,.07-.03.13-.04.2-.02.08-.05.16-.08.24,0,.06-.03.13-.05.19-.03.06-.04.12-.08.17-.09.24-.21.48-.35.69-.04.09-.11.18-.17.26-.01.02-.02.03-.02.04-.08.11-.16.21-.25.31-.59.67-1.3,1.26-2.15,1.48-1.05.28-2.16-.07-3.2-.4-1.29-.43-2.68-.86-3.95-.1-.63.37-1,1.08-.87,1.77,0,.07.02.13.04.19.36,1.23,1.91,1.37,3.12,1.23,1.41-.15,2.87-.42,4.21.04,1.34.46,2.45,1.96,1.91,3.26-.32.77-1.14,1.57-1.12,2.27.01.45,0,.91-.11,1.35-.16.61-.19,1.25-.11,1.86.14,1.08-.49,2.09-1.51,2.44-2.87.96-5.67,2.27-7.26,4.77-.87,1.37-1.28,2.98-1.51,4.59-.66,4.57.13,9.33,2.19,13.47.33.65.1,1.45-.53,1.79-.2.1-.4.19-.61.26-.55.18-1.15.25-1.72.25-1.26,0-2.59-.21-3.75.27-.58.23-1.08.61-1.67.77-.89.24-1.85-.04-2.78.08-.62.08-.83.53-.77,1.06.05.52.44.94.93,1.06,2.2.52,4.15-1.04,6.37-.17.06.04.12.07.18.09.38.18.73.39,1.08.59-.03.01-.06.05-.1.07-.06.06-.1.14-.14.23-.01.04-.03.08-.04.14-.05.11-.08.23-.11.35-.27.87-1.19,1.36-2.04,1.7-.94.38-1.91.7-2.9.95-.45.12-.92.23-1.3.48-.22.14-.39.32-.59.5-.11.09-.23.18-.34.27-.12.09-.25.17-.37.25s-.26.15-.38.23c-.13.07-.26.14-.4.21-.16.08-.33.16-.51.21-.39.11-.79.14-1.11-.09-.4-.29-.46-.85-.49-1.34,0-.07,0-.27,0-.47,0-.04,0-.09-.01-.12,0-.04-.01-.07-.02-.11-.01-.05-.02-.09-.04-.14-.01-.03-.02-.07-.04-.1-.04-.07-.12-.1-.22-.06-.01,0-.02,0-.03.03-.02.03-.05.07-.07.12-.02.06-.03.12-.05.19-.02.07-.03.15-.04.23-.01.04-.01.08-.01.12-.01.07-.02.14-.02.21,0,.04,0,.06,0,.1-.01.13-.02.26-.03.35,0,.06-.01.1-.01.13-.08.76-.09,1.53-.04,2.3.02.29.04.57.08.85,0,.07.02.13.02.19.01.13.04.26.07.38.02.08.03.15.06.23.03.07.05.15.09.22.06.14.14.27.24.39.16.17.4.3.64.32-.06.14-.1.28-.13.41-.06.24-.09.5,0,.73.02.07.07.14.11.2.06.06.11.11.17.16.05.06.12.1.19.14.07.05.14.09.2.14.82.47,1.66.92,2.5,1.35.36.17.71.34,1.08.46.38.11.77.17,1.16.21,1.96.2,3.94-.02,5.89-.36-.04.17.09.31.4.28.6-.07,1.17-.18,1.78-.2h.85l3.58,1.25c.39.67-.52,1.41-1.29,1.42-.78,0-1.57-.34-2.3-.1-1.28.42-1.47,2.12-2.18,3.25-1.03,1.59-3.13,2-5.01,2.22-3.08.37-6.28.62-9.23-.31-2.97-.91-5.68-3.26-6.14-6.33-.6-3.97,2.51-7.44,3.76-11.26.68-2.12.78-4.42.29-6.59-.1-.46-.23-.9-.37-1.35-.53-1.62-1.25-3.19-1.59-4.85-.45-2.14-.16-4.63,1.53-6,.24-.2.52-.39.59-.69.06.18.12.36.19.55.2.56.45,1.13.86,1.56.34.35.76.6,1.2.8,1.03.48,2.15.73,3.27.66,1.12-.08,2.22-.51,3.03-1.29.57-.53,1-1.25,1.71-1.57.15-.08.31-.13.45-.23.22-.16.33-.44.42-.7.3-.97.27-2.05-.08-3.01-.26-.71-.71-1.43-.58-2.18.44-.23.8-.57,1.16-.91.99-.91,2.03-1.95,2.22-3.29.13-1.01-.3-2.09-1.11-2.72-.36-.29-.95-.45-1.21-.08-.09.11-.12.26-.13.41-.05.52.08,1.08-.16,1.54-.25.47-.82.69-1.36.69s-1.05-.19-1.56-.34c-3.53-1.05-7.49-.39-10.55,1.63-.42.28-.84.59-1.22.94-.18.15-.36.39-.6.39-.29.01-.44-.31-.76-.17-.28.13-.36.48-.37.79-.05.69-.06,1.41.22,2.04.28.63.93,1.15,1.61,1.07.73-.1,1.19-.76,1.64-1.34.44-.57,1.11-1.14,1.8-.94.45.88-.14,1.91-.34,2.87-.16.72-.1,1.46.07,2.18-.02-.03-.04-.05-.05-.07-.82-1.09-2.22-1.54-3.43-2.17-3.53-1.8-5.95-5.6-6.08-9.57,0-.4-.23-.77-.61-.89-.36-.11-.63.04-.82.32-.3,2.39.01,4.6.33,6.05-.08-.1-.17-.19-.27-.28-.28-.24-.58-.4-.92-.5h0c-1.02-.35-2.26-.27-3.24-.78-1.64-.87-2.01-3.07-1.82-4.92.18-1.87.72-3.69.84-5.57.23-3.5-.96-6.88-1.38-10.32-.1-.82-.17-1.65-.14-2.48,0-.36.13-.89.22-1.38-1.71,2.07-1.61,4.23-1.47,5.12l.02.02c.92.93,1.06,2.38,1.04,3.69-.02,2.37-.36,4.72-1,7.01-.05.19-.16.43-.37.4-.15,0-.23-.18-.3-.33-.32-.88-.69-1.76-1.1-2.61-.16-.33-.43-.74-.69-1.17-.6,5.06,1.8,8.67,1.8,8.67.31,6.35,2.18,11.58,3.06,13.7.26.64.44,1,.44,1,.98,1.9,2.18,3.44,3.39,4.65,3.23,3.24,6.64,4.32,6.79,4.35h0c.04.29.09.55.12.81.01.03.01.07.02.08.03.17.04.34.07.5.03.17.04.33.07.5.03.2.05.4.07.6.03.19.05.39.07.57.05.38.08.76.12,1.12,0,.19.02.37.04.53.03.37.05.73.08,1.07.01.16.02.31.02.45.01.1.02.18.02.27v.17c0,.06,0,.13.01.19.01.15.01.3.01.44.01.13.01.26.02.4.04,2.58-.16,4.4-.34,5.49-.11.63-.28,1.24-.53,1.83-1.5,3.67-1.61,6.18-1.35,7.79.22,1.23.9,2.31,1.89,3.05,1.88,1.42,3.81,2.59,5.69,3.54,6.29,3.19,12.06,4.03,13.76,4.22.3.03.6.05.9.04,8.65-.12,14.92-4.38,14.92-4.38,9.42-5.84,6.07-12.73,5.15-14.27-.15-.26-.29-.51-.39-.78-1.26-3.44-1.34-7.54-.89-11.46h0c.04-.34.08-.67.12-1,.53-.09,1.05-.23,1.55-.42.31-.11.62-.24.91-.39.03-.01.07-.03.1-.05,5.57-2.82,8.98-10.86,8.98-10.86,4.4-5.01,1.97-16.4,1.4-18.8Zm-41.37,13.86c1.05,0,1.91.85,1.91,1.91s-.86,1.92-1.91,1.92-1.92-.86-1.92-1.92.86-1.91,1.92-1.91Zm9.53,21.75c.07-.26.13-.52.19-.78.02-.07.04-.14.05-.21,0-.04,0-.07.01-.1.03-.14.03-.27-.01-.4v-.04s-.01-.02-.02-.02h.01c.52.22,1.06.31,1.62.05.63-.29,1.22-1.08,1.95-1.3,2.83-.84,3.03.85,4.17.82-.04.07-.09.15-.12.24-.01.02-.03.04-.03.05-.13.3-.23.62-.39.9-.45.83-1.36,1.3-2.26,1.59-.9.27-1.86.42-2.71.83-.44.21-.85.49-1.3.69-.2.1-.51.11-.77.17-.01-.09-.02-.18-.04-.28-.03-.17-.05-.35-.09-.54-.03-.2-.07-.39-.1-.59,0-.09-.03-.19-.04-.29-.04-.29-.09-.56-.12-.78h0Zm-.4-1.87c.07.03.14.07.2.11-.07-.03-.13-.07-.2-.1h0Zm9.18,8.08c-.31.21-.53.54-.77.81-.7.79-1.75,1.17-2.78,1.41-2.68.64-5.49.52-8.25.38-1.09-.05-2.19-.12-3.27-.3-.96-.16-2.05-.38-2.84-.97-.2-.15-.45-.31-.7-.36.07-.17.11-.36.2-.51.28-.04.45-.2.72-.3.33-.1.69-.11,1.04-.13l1.54-.06c.57-.02,1.13-.04,1.69,0,.38.03.76.1,1.14.12,1.14.1,2.28-.08,3.41-.24.01,0,.02-.01.03-.01.03.06.08.11.16.16.3.16.93-.1,1.26-.14,1.05-.14,2.12-.15,3.17-.02.32.03.64.09.95.11.72.07,1.44.05,2.16-.07.54-.09,1.11-.24,1.63-.06.03.01.06.02.09.04-.2-.03-.42.03-.58.14Z"/>
      </g>
    </g>
  </g>
</svg>