<?xml version="1.0" encoding="UTF-8"?>
<svg id="Ebene_2" data-name="Ebene 2" xmlns="http://www.w3.org/2000/svg" viewBox="0 0 242.67 242.67">
  <defs>
    <style>
      .cls-1 {
        fill: #fff;
      }

      .cls-2 {
        fill: #597bbc;
        stroke: #fff;
        stroke-miterlimit: 10;
        stroke-width: 10px;
      }
    </style>
  </defs>
  <g id="Ebene_19" data-name="Ebene 19">
    <g>
      <circle class="cls-2" cx="121.33" cy="121.33" r="116.33"/>
      <path class="cls-1" d="m202.46,100.42l3.21-7.01c.55-1.2.36-2.61-.48-3.62l-27.02-32.48c-.65-.78-1.62-1.24-2.64-1.24h-108.4c-1.02,0-1.98.45-2.64,1.24l-27.02,32.49c-.84,1.01-1.03,2.42-.48,3.62l49.2,107.75c.56,1.22,1.78,2,3.12,2h64.04c1.34,0,2.56-.78,3.12-2.01l34.46-75.49c1.04-2.27-.62-4.85-3.12-4.85h-73.63c-2.5,0-4.16,2.59-3.12,4.86l10.91,23.74c.56,1.22,1.78,2,3.12,2h17.15c2.5,0,4.16,2.59,3.12,4.86l-5.3,11.54c-.56,1.22-1.78,2-3.12,2h-26.7c-1.34,0-2.56-.78-3.12-2l-30.02-65.38-2.06-4.78c-.97-2.26.69-4.78,3.15-4.78h89.47c2.46,0,4.12,2.52,3.15,4.78h0c-.97,2.26.69,4.78,3.15,4.78h25.39c1.34,0,2.56-.78,3.12-2Z"/>
    </g>
  </g>
</svg>